<svg width="200" height="64" viewBox="0 0 200 64" fill="none" xmlns="http://www.w3.org/2000/svg">
<path d="M39.014 52.814C39.014 52.814 41.2791 52.9536 42.0704 56.2272C42.0704 56.2272 42.3031 58.5388 43.8701 58.7716C42.753 59.0043 42.2876 59.4697 42.21 59.9041C41.093 58.6785 40.7516 57.1736 40.612 56.3047C40.4724 55.3273 39.2312 53.8069 39.2312 53.8069L39.014 52.814Z" fill="#E5880E"/>
<path d="M34.499 50.5179C34.499 50.5179 39.0293 49.6491 40.9065 52.6589C43.4199 56.6772 46.3832 56.3048 48.307 55.4981C47.0503 56.6461 46.9417 57.9183 46.9417 57.9183C46.9417 57.9183 42.4425 57.9649 40.5963 54.7999C39.4016 53.2174 38.4087 52.9071 38.4087 52.9071L34.499 50.5179Z" fill="#E8AE08"/>
<path d="M34.4217 50.2851L36.7954 41.5349" stroke="#404936" stroke-width="0.396196" stroke-miterlimit="10"/>
<path d="M38.7968 60.4161H27.1764C26.8351 60.4161 26.5713 60.1369 26.5713 59.8111V50.9988H39.4174V59.7955C39.4174 60.1369 39.1381 60.4161 38.7968 60.4161Z" fill="#61664A"/>
<path d="M22.5686 40.573L30.2173 50.735" stroke="#404936" stroke-width="0.396196" stroke-miterlimit="10"/>
<path d="M44.0252 40.573L36.3921 50.735" stroke="#404936" stroke-width="0.396196" stroke-miterlimit="10"/>
<path d="M32.1876 50.2851L29.8139 41.5349" stroke="#404936" stroke-width="0.396196" stroke-miterlimit="10"/>
<path d="M55.7077 21.4901C55.7077 32.1641 49.1606 40.9454 40.7827 41.9693C46.7558 38.6182 50.9602 30.7213 50.9602 21.4901C50.9602 12.2744 46.7558 4.36201 40.7827 1.01086C49.1606 2.05034 55.7077 10.8161 55.7077 21.4901Z" fill="#404936"/>
<path d="M25.6405 41.9693C17.2626 40.9454 10.7155 32.1641 10.7155 21.4901C10.7155 10.8161 17.2626 2.03483 25.6405 1.01086C19.6674 4.36201 15.4629 12.2744 15.4629 21.4901C15.4629 30.7213 19.6674 38.6182 25.6405 41.9693Z" fill="#404936"/>
<path d="M32.6686 3.02772C32.6686 0.886708 30.512 -0.556147 28.5107 0.235096C27.9521 0.4523 27.3936 0.716047 26.8506 1.02634C20.8775 4.37749 16.673 12.2899 16.673 21.5056C16.673 30.7212 20.8775 38.6337 26.8506 41.9848C27.3936 42.2796 27.9366 42.5433 28.5107 42.7761C30.4965 43.5673 32.6686 42.1244 32.6686 39.9834V3.02772Z" fill="#547147"/>
<path d="M28.1228 48.1286C27.2695 50.3937 32.6375 51.1229 32.6375 51.1229C32.6375 51.1229 32.4359 53.9466 33.0564 50.8281C33.677 47.7097 31.8153 45.3825 31.1792 45.1033C30.5431 44.793 28.9761 45.848 28.1228 48.1286ZM31.8308 47.3374C32.3738 47.8804 32.9634 49.9593 32.9634 49.9593L32.7772 50.5489C32.7772 50.5489 29.5036 49.556 29.938 48.7027C30.3724 47.8493 31.3033 46.7944 31.8308 47.3374Z" fill="#E5880E"/>
<path d="M39.6656 1.01084C39.1226 0.716059 38.5796 0.452311 38.0056 0.219593C36.0197 -0.57165 33.8477 0.871205 33.8477 3.01222V39.9679C33.8477 42.1089 36.0042 43.5518 38.0056 42.7606C38.5641 42.5433 39.1226 42.2796 39.6656 41.9693C45.6387 38.6182 49.8432 30.7212 49.8432 21.4901C49.8432 12.2744 45.6387 4.3775 39.6656 1.01084Z" fill="#547147"/>
<path d="M33.615 51.6504H32.3583V60.4472H33.615V51.6504Z" fill="white"/>
<path d="M39.4279 56.1958V54.9391H26.4732V56.1958H39.4279Z" fill="white"/>
<path d="M34.763 44.9791C32.3427 44.7619 33.1029 50.1299 33.1029 50.1299C33.1029 50.1299 30.3258 50.7039 33.5063 50.4557C36.6713 50.2075 38.4089 47.7872 38.5175 47.1046C38.6261 46.4219 37.1833 45.1963 34.763 44.9791ZM36.5317 48.3612C36.1593 49.0284 34.3131 50.1609 34.3131 50.1609L33.708 50.1454C33.708 50.1454 33.7856 46.7167 34.7165 46.9184C35.6473 47.1046 36.904 47.6941 36.5317 48.3612Z" fill="#E8AE08"/>
<path opacity="0.64" d="M26.5713 51.6969L39.4174 51.6814V52.4882L26.5713 52.0382V51.6969Z" fill="#61664A"/>
<path opacity="0.32" d="M33.0254 64C38.8605 64 43.5908 63.7499 43.5908 63.4415C43.5908 63.133 38.8605 62.8829 33.0254 62.8829C27.1903 62.8829 22.46 63.133 22.46 63.4415C22.46 63.7499 27.1903 64 33.0254 64Z" fill="#506C44"/>
<path d="M39.6967 51.6969H26.2766C26.0904 51.6969 25.9352 51.5418 25.9352 51.3556V50.3937C25.9352 50.2075 26.0904 50.0524 26.2766 50.0524H39.6967C39.8828 50.0524 40.038 50.2075 40.038 50.3937V51.3556C40.038 51.5418 39.8828 51.6969 39.6967 51.6969Z" fill="#3E432F"/>
<path d="M33.8321 50.0524H32.1721V51.6969H33.8321V50.0524Z" fill="white"/>
<path d="M50.7275 42.5744L50.9137 43.4277C50.9292 43.4897 50.9602 43.5363 51.0223 43.5518L51.829 43.8776C51.9687 43.9397 51.9842 44.1103 51.8446 44.1879L51.0843 44.6223C51.0378 44.6533 51.0068 44.6999 50.9913 44.7619L50.9292 45.6308C50.9137 45.7704 50.743 45.848 50.6344 45.7549L49.9828 45.1808C49.9363 45.1498 49.8742 45.1343 49.8277 45.1343L48.9744 45.336C48.8347 45.367 48.7106 45.2274 48.7727 45.0877L49.1295 44.281C49.145 44.2344 49.145 44.1724 49.114 44.1258L48.6485 43.3811C48.571 43.257 48.6641 43.1019 48.8192 43.1174L49.688 43.2105C49.7501 43.2105 49.7966 43.195 49.8432 43.1484L50.4017 42.4813C50.5258 42.3882 50.6965 42.4347 50.7275 42.5744Z" fill="#E8AE08"/>
<path d="M15.1681 44.2344L15.9594 44.6068C16.0059 44.6378 16.068 44.6223 16.13 44.6068L16.8902 44.1724C17.0144 44.0948 17.1695 44.2034 17.154 44.343L17.0454 45.2118C17.0454 45.2739 17.0609 45.3204 17.1074 45.367L17.759 45.9565C17.8677 46.0496 17.8211 46.2358 17.6815 46.2668L16.8282 46.422C16.7661 46.4375 16.7196 46.4685 16.7041 46.5306L16.3472 47.3218C16.2852 47.4614 16.099 47.4614 16.0369 47.3373L15.618 46.5771C15.587 46.5306 15.5405 46.4995 15.4784 46.484L14.6096 46.3909C14.47 46.3754 14.4079 46.2048 14.501 46.0962L15.1061 45.4601C15.1526 45.4135 15.1681 45.367 15.1526 45.3049L14.9664 44.4516C14.8889 44.2965 15.0285 44.1724 15.1681 44.2344Z" fill="#E8AE08"/>
<path d="M2.29099 21.9865L2.35305 22.8554C2.35305 22.9174 2.38408 22.964 2.44614 22.995L3.20635 23.4449C3.33047 23.5225 3.31496 23.7087 3.19084 23.7552L2.38408 24.081C2.33754 24.0965 2.29099 24.1431 2.27548 24.2051L2.0893 25.0584C2.05827 25.1981 1.8721 25.2446 1.77901 25.136L1.22049 24.4689C1.18946 24.4223 1.1274 24.4068 1.06534 24.4068L0.196526 24.4844C0.056895 24.4999 -0.0517056 24.3448 0.0258673 24.2206L0.491304 23.4759C0.522334 23.4294 0.522332 23.3673 0.506818 23.3208L0.165497 22.514C0.103439 22.3744 0.227556 22.2348 0.367187 22.2813L1.22049 22.4985C1.28255 22.514 1.32909 22.4985 1.37563 22.452L2.02725 21.8779C2.10482 21.7693 2.27548 21.8469 2.29099 21.9865Z" fill="#E8AE08"/>
<path d="M59.2605 12.0728L59.9277 12.6468C59.9742 12.6778 60.0363 12.6934 60.0828 12.6778L60.9361 12.4606C61.0757 12.4296 61.1999 12.5692 61.1378 12.6934L60.7965 13.5001C60.781 13.5467 60.781 13.6087 60.812 13.6553L61.2774 14.4C61.355 14.5241 61.2619 14.6792 61.1068 14.6637L60.2379 14.5861C60.1759 14.5861 60.1293 14.6016 60.0828 14.6482L59.5243 15.3153C59.4312 15.4239 59.245 15.3774 59.214 15.2377L59.0123 14.3844C58.9968 14.3224 58.9657 14.2758 58.9037 14.2603L58.0969 13.9345C57.9573 13.888 57.9418 13.7018 58.0659 13.6242L58.8106 13.1743C58.8572 13.1433 58.8882 13.0967 58.8882 13.0347L58.9347 12.1659C58.9813 12.0417 59.1519 11.9797 59.2605 12.0728Z" fill="#E8AE08"/>
<path opacity="0.33" d="M49.9207 21.49C49.9207 20.5436 49.8742 19.6128 49.7811 18.6819C47.516 31.5745 34.7165 35.9961 33.9407 36.2599V39.9524C33.9407 42.0934 36.0973 43.5362 38.0986 42.745C38.6572 42.5278 39.2157 42.264 39.7587 41.9537C45.7318 38.6181 49.9207 30.7212 49.9207 21.49Z" fill="#547147"/>
<path opacity="0.33" d="M55.6301 23.507C53.7374 29.2473 48.7417 34.2896 46.942 35.9652C45.2819 38.5561 43.1719 40.6195 40.7827 41.9693C48.6175 41.0074 54.8544 33.2501 55.6301 23.507Z" fill="#404936"/>
<path opacity="0.33" d="M32.7617 28.301C32.6065 30.2869 31.2567 33.7466 26.8661 34.7861C22.491 35.8256 18.4107 30.442 18.0073 29.899C19.6674 35.3446 22.9099 39.7198 26.9592 41.9849C27.5022 42.2797 28.0452 42.5434 28.6193 42.7761C30.6051 43.5674 32.7772 42.1245 32.7772 39.9835V28.301H32.7617Z" fill="#547147"/>
<path opacity="0.33" d="M16.9678 37.5943C19.3881 39.999 22.3669 41.566 25.625 41.9694C21.1878 39.487 17.728 34.4758 16.2386 28.301C17.0299 32.49 17.0299 35.9652 16.9678 37.5943Z" fill="#404936"/>
<path opacity="0.39" d="M28.6038 0.235096C28.0452 0.4523 27.4867 0.716047 26.9437 1.02634C22.2428 3.66382 18.6589 9.10943 17.3247 15.7807C18.5193 12.6623 22.6151 4.70329 32.7462 6.50298V3.02772C32.7617 0.886708 30.5896 -0.556147 28.6038 0.235096Z" fill="#547147"/>
<path opacity="0.39" d="M25.6405 1.01086C17.5419 2.0038 11.1499 10.242 10.731 20.4506C12.903 11.2195 19.0933 6.72023 20.1793 5.99104C21.7308 3.88106 23.577 2.17446 25.6405 1.01086Z" fill="#404936"/>
<path opacity="0.39" d="M38.7192 6.14616C42.7065 5.19977 45.1888 6.8288 46.7868 8.48886C45.0181 5.21529 42.5824 2.60884 39.7587 1.01084C39.2157 0.716059 38.6727 0.452311 38.0986 0.219593C36.1128 -0.57165 33.9407 0.871205 33.9407 3.01222V13.4535C34.5148 10.3351 35.8025 6.84431 38.7192 6.14616Z" fill="#547147"/>
<g opacity="0.39">
<path d="M50.2 14.8189L50.2155 14.8499C50.2155 14.8499 50.2 14.7723 50.1535 14.6172C50.169 14.6948 50.1845 14.7568 50.2 14.8189Z" fill="#404936"/>
<path d="M48.5555 4.56369C46.3059 2.62437 43.6529 1.36769 40.7827 1.02637C44.9561 3.36907 48.2452 7.91484 49.8742 13.5932C49.3157 11.3901 48.2917 6.93742 48.5555 4.56369Z" fill="#404936"/>
</g>
<path d="M92.0728 38.1214H92.1769C92.7671 38.1214 93.3919 38.0173 94.0862 37.7743C94.9888 37.4619 95.7872 37.0106 96.4815 36.3857C98.4602 34.7889 99.4322 32.4283 99.4322 29.2693C99.4322 27.1517 98.8074 25.4854 97.5577 24.2704C96.3427 23.1248 94.7111 22.5347 92.6976 22.5347C88.6013 22.5347 84.991 23.8191 81.8667 26.388C80.7559 27.2905 79.7839 28.2973 78.9507 29.4081C78.2912 30.2413 77.8746 30.9703 77.6663 31.5257C77.6663 31.5604 77.6663 31.5604 77.6316 31.5604C77.5621 31.5604 77.458 31.491 77.3191 31.3174C77.1456 31.1439 76.9373 30.9356 76.7637 30.6925C76.2777 30.033 76 29.4775 76 28.9568C76 26.9781 77.8051 24.8605 81.4502 22.6735C85.1299 20.4518 88.7402 19.3409 92.2464 19.3409C95.0582 19.3409 97.3494 20.1741 99.1198 21.8057C100.994 23.5414 101.897 25.8325 101.897 28.6791C101.897 31.3174 101.099 33.7127 99.5017 35.7956C97.766 38.0867 95.5789 39.267 92.9406 39.267C92.1422 39.267 91.3785 39.1629 90.6495 38.9199L89.7469 38.4339C89.5733 38.3645 89.3651 38.2603 89.1915 38.1562C89.1915 38.295 89.1915 38.4339 89.1568 38.538L89.0873 38.8504C88.9138 39.7183 88.5666 40.3085 88.0112 40.6556C87.8376 40.7945 87.6293 40.8639 87.3863 40.9333L87.1086 40.968H86.692L86.3796 40.9333C86.0672 40.8639 85.7895 40.7598 85.5812 40.6209C84.991 40.239 84.7828 39.5795 84.9563 38.6422C85.0605 38.0867 85.3382 37.6007 85.8242 37.1494C86.1366 36.8717 86.449 36.6634 86.7615 36.5593C86.7962 35.4832 86.8656 34.0946 87.0392 32.3589L87.2128 30.0677C87.2822 29.2345 87.2822 28.4361 87.2822 27.7071C87.2822 27.117 87.2475 26.5963 87.2128 26.145C87.1086 25.4854 86.9351 24.9994 86.7268 24.6522H87.3169L87.9418 24.687C88.4278 24.7564 88.8443 24.8952 89.1915 25.0341C90.1288 25.4854 90.6148 26.3185 90.6148 27.603C90.6148 27.6724 90.5454 28.1237 90.4065 28.9221L90.3023 29.5123L90.1982 30.1371C90.0941 30.6926 90.0246 31.1786 89.9552 31.5951C89.5733 33.7127 89.3651 35.3443 89.2956 36.5246C89.6428 37.1842 90.5801 37.7049 92.0728 38.1214ZM87.0045 40.2043C87.0739 39.9613 87.1433 39.3017 87.2475 38.1562C86.6573 38.2256 86.2755 38.5033 86.1713 39.0587C86.1019 39.4406 86.1713 39.7183 86.4143 39.9266C86.5185 39.996 86.6226 40.0655 86.7268 40.1349C86.7962 40.2043 86.8656 40.2043 86.935 40.2043H87.0045Z" fill="#404936"/>
<path d="M104.987 38.5727C104.292 38.5727 103.737 38.3992 103.286 38.0173C102.8 37.6354 102.591 37.1147 102.591 36.4552C102.591 35.622 102.973 34.8583 103.772 34.164C104.57 33.4697 105.507 33.0878 106.618 33.0878C106.722 33.0878 106.826 33.0878 106.965 33.1226L107.069 33.1573H107.243C107.382 33.1573 107.451 33.0531 107.451 32.8796C107.451 32.22 107 31.8728 106.063 31.7687C105.681 31.734 105.299 31.7687 104.882 31.8034C104.501 31.8728 104.188 31.9076 103.945 32.0117C103.841 32.0811 103.737 32.0464 103.633 31.977C103.529 31.8728 103.459 31.734 103.459 31.5951C103.459 31.005 103.598 30.519 103.841 30.1718C104.223 29.6858 104.813 29.4775 105.646 29.4775H106.202C106.445 29.5123 106.653 29.547 106.861 29.547C107.417 29.6164 107.903 29.7553 108.354 29.9288C109.499 30.4496 110.09 31.3174 110.09 32.5671C110.055 32.8796 110.02 33.2961 110.02 33.8168C110.02 34.5111 110.02 35.136 110.055 35.7261C110.194 37.3924 110.506 38.3297 110.992 38.5727V38.7463C110.992 38.8157 110.992 38.8504 110.957 38.8504C110.888 38.9546 110.68 39.024 110.367 39.024C110.194 39.024 110.055 38.9893 109.881 38.9546C109.673 38.8852 109.465 38.781 109.291 38.6422C108.77 38.2603 108.389 37.6007 108.18 36.7329C107.417 37.9479 106.34 38.5727 104.987 38.5727ZM106.306 36.8717C106.583 36.8717 106.861 36.8023 107.174 36.6287C107.521 36.4552 107.764 36.2121 107.937 35.9691C107.868 35.865 107.833 35.6914 107.833 35.4832V34.8583C107.798 34.3376 107.694 34.0599 107.521 34.0599C107.069 34.0599 106.618 34.2681 106.202 34.7194C105.75 35.1707 105.542 35.5873 105.542 36.0039C105.473 36.594 105.75 36.8717 106.306 36.8717Z" fill="#404936"/>
<path d="M117.9 30.6578C119.046 31.6298 119.636 32.8448 119.636 34.3375C119.636 35.3443 119.358 36.2469 118.768 37.0453C118.143 37.9826 117.31 38.4686 116.269 38.4686C115.088 38.4686 114.186 38.052 113.561 37.2189C113.422 38.1909 113.318 39.2323 113.249 40.4126C113.179 40.8292 113.179 41.211 113.179 41.5929C113.144 41.8706 113.144 42.0789 113.144 42.183C113.144 42.3566 113.144 42.5302 113.179 42.669C113.249 42.8773 113.318 43.0509 113.457 43.1897C112.867 43.4674 112.311 43.398 111.721 43.0162C111.131 42.6343 110.853 42.1483 110.888 41.5582L110.957 40.1002L111.027 38.6769C111.166 36.9064 111.235 35.2054 111.235 33.5738V33.192L111.166 32.706C111.096 32.3241 110.992 32.0464 110.853 31.8728H111.131L111.339 31.8381H111.548C111.964 31.8381 112.311 31.8728 112.624 31.9075C113.526 32.1158 114.012 32.6713 114.012 33.6086C114.012 33.8168 114.012 33.9904 113.978 34.0946L113.943 34.3375L113.908 34.65C113.873 34.893 113.839 35.1013 113.839 35.3096C113.908 35.7261 114.116 36.108 114.429 36.4204C114.811 36.8023 115.193 36.9759 115.644 36.9759C116.13 36.9759 116.546 36.6981 116.894 36.1427C117.171 35.6567 117.275 35.136 117.275 34.5458C117.275 33.678 116.894 32.8795 116.165 32.1505C115.401 31.3521 114.568 31.0397 113.596 31.2132L113.249 31.3174L112.971 31.4215C112.763 31.491 112.589 31.5257 112.45 31.5257C112.415 31.5257 112.381 31.5257 112.277 31.491C112.172 31.4563 112.068 31.4215 111.999 31.3868C111.791 31.248 111.686 31.0744 111.686 30.8661C111.686 30.4495 111.895 30.1024 112.277 29.79C112.763 29.4775 113.387 29.304 114.151 29.304C115.574 29.3387 116.824 29.7553 117.9 30.6578Z" fill="#404936"/>
<path d="M128.558 38.9893L128.037 39.024C127.62 39.024 127.273 38.9893 126.961 38.9199C126.162 38.7463 125.711 38.2256 125.676 37.3577C124.461 38.5727 123.281 39.1629 122.136 39.1629H121.788C121.615 39.1282 121.441 39.0587 121.302 38.9546C120.886 38.6422 120.712 37.9826 120.782 36.9759C120.886 36.108 120.955 35.4137 120.99 34.9277C121.094 33.8516 121.164 33.1226 121.164 32.6713C121.164 32.0117 121.129 31.4563 121.059 30.9355C120.99 30.5537 120.921 30.2413 120.816 29.9288L120.712 29.6164L120.608 29.3734C120.539 29.1998 120.504 29.0957 120.504 29.0262C120.504 28.8527 120.608 28.7485 120.851 28.7485C121.441 28.7485 122.031 29.0263 122.587 29.5817C123.212 30.2066 123.524 31.0397 123.524 32.0464C123.524 33.8168 123.524 34.9971 123.559 35.5873C123.594 36.2469 123.663 36.5593 123.837 36.5593C124.08 36.5593 124.461 36.2469 125.052 35.6567C125.295 35.4484 125.538 35.2054 125.746 34.9624C125.919 34.7194 126.093 34.5459 126.232 34.3723C126.405 33.6086 126.51 32.8101 126.614 32.0117C126.718 31.248 126.787 30.7273 126.787 30.4843C126.787 30.3107 126.787 30.1371 126.753 29.9635C126.683 29.7553 126.614 29.5817 126.475 29.4428C127.065 29.1304 127.62 29.1304 128.211 29.4428C128.801 29.79 129.078 30.3454 129.044 31.1091C129.044 31.2827 129.009 31.5257 128.974 31.8728L128.94 32.3936L128.905 32.9143C128.835 33.8168 128.766 34.6153 128.731 35.2748C128.627 37.2883 128.731 38.538 129.078 39.024H128.558V38.9893Z" fill="#404936"/>
<path d="M148.796 38.1214H148.9C149.49 38.1214 150.115 38.0173 150.81 37.7743C151.712 37.4619 152.511 37.0106 153.205 36.3857C155.184 34.7889 156.156 32.4283 156.156 29.2693C156.156 27.1517 155.531 25.4854 154.281 24.2704C153.066 23.1248 151.435 22.5347 149.421 22.5347C145.325 22.5347 141.714 23.8191 138.59 26.388C137.479 27.2905 136.507 28.2973 135.674 29.4081C135.015 30.2413 134.598 30.9703 134.39 31.5257C134.39 31.5604 134.39 31.5604 134.355 31.5604C134.286 31.5604 134.181 31.491 134.043 31.3174C133.869 31.1439 133.661 30.9356 133.487 30.6925C133.001 30.033 132.723 29.4775 132.723 28.9568C132.723 26.9781 134.529 24.8605 138.174 22.6735C141.853 20.4518 145.464 19.3409 148.97 19.3409C151.782 19.3409 154.073 20.1741 155.843 21.8057C157.718 23.5414 158.62 25.8325 158.62 28.6791C158.62 31.3174 157.822 33.7127 156.225 35.7956C154.489 38.0867 152.302 39.267 149.664 39.267C148.866 39.267 148.102 39.1629 147.373 38.9199L146.47 38.4339C146.297 38.3645 146.088 38.2603 145.915 38.1562C145.915 38.295 145.915 38.4339 145.88 38.538L145.811 38.8504C145.637 39.7183 145.29 40.3085 144.735 40.6556C144.561 40.7945 144.353 40.8639 144.11 40.9333L143.832 40.968H143.346L143.034 40.9333C142.721 40.8639 142.443 40.7598 142.235 40.6209C141.645 40.239 141.437 39.5795 141.61 38.6422C141.714 38.0867 141.992 37.6007 142.478 37.1494C142.791 36.8717 143.103 36.6634 143.415 36.5593C143.45 35.4832 143.52 34.0946 143.693 32.3589L143.867 30.0677C143.936 29.2345 143.936 28.4361 143.936 27.7071C143.936 27.117 143.901 26.5963 143.867 26.145C143.763 25.4854 143.589 24.9994 143.381 24.6522H143.971L144.596 24.687C145.082 24.7564 145.498 24.8952 145.845 25.0341C146.783 25.4854 147.269 26.3185 147.269 27.603C147.269 27.6724 147.199 28.1237 147.06 28.9221L146.956 29.5123L146.852 30.1371C146.748 30.6926 146.679 31.1786 146.609 31.5951C146.227 33.7127 146.019 35.3443 145.95 36.5246C146.366 37.1842 147.303 37.7049 148.796 38.1214ZM143.728 40.2043C143.797 39.9613 143.867 39.3017 143.971 38.1562C143.381 38.2256 142.999 38.5033 142.895 39.0587C142.825 39.4406 142.895 39.7183 143.138 39.9266C143.242 39.996 143.346 40.0655 143.45 40.1349C143.52 40.2043 143.589 40.2043 143.658 40.2043H143.728Z" fill="#404936"/>
<path d="M164.557 38.9893C164.591 38.5727 164.626 38.1908 164.661 37.8784C163.862 38.5727 162.994 38.8851 162.161 38.8851C160.599 38.8851 159.766 37.7743 159.592 35.5872C159.523 34.893 159.523 33.9904 159.592 32.8101L159.662 32.1505L159.697 31.5257C159.731 31.0397 159.731 30.6925 159.731 30.4148C159.731 30.0676 159.731 29.8246 159.697 29.6511C159.627 29.1651 159.558 28.8179 159.454 28.5402H159.801L160.287 28.5055C160.703 28.5055 161.05 28.5402 161.363 28.6096C162.196 28.8179 162.613 29.3386 162.613 30.1718C162.543 30.5536 162.439 30.9355 162.37 31.3868L162.265 31.9769L162.196 32.5671C161.918 33.921 161.779 35.1707 161.779 36.351C161.779 36.9758 161.988 37.2882 162.37 37.2882C163.168 37.2882 163.793 36.8717 164.244 36.0732C164.626 35.3789 164.8 34.5111 164.8 33.5738V33.1919L164.73 32.706C164.661 32.3241 164.557 32.0117 164.418 31.8381H164.8L165.286 31.8034C165.702 31.8034 166.049 31.8381 166.292 31.9075C167.091 32.1158 167.507 32.6712 167.507 33.5738C167.577 33.7474 167.507 34.3028 167.403 35.3095L167.334 36.0038L167.23 36.5592L167.195 36.9411L167.125 37.7395C167.473 37.566 167.785 37.3924 168.097 37.1841C168.34 37.0452 168.583 36.9064 168.861 36.6981L169.486 36.3162C169.555 36.3857 169.59 36.4898 169.59 36.6287C169.59 37.0105 168.722 37.8437 166.952 39.0587L166.848 39.996L166.744 40.9333C166.674 41.6275 166.605 42.3219 166.535 42.9467C166.501 43.398 166.396 43.8493 166.223 44.2659C165.841 45.1337 165.251 45.5503 164.452 45.5503C163.758 45.5503 163.168 45.2031 162.613 44.5436C162.127 43.884 161.849 43.2244 161.849 42.4954C161.849 41.5928 162.231 40.7597 162.994 40.0654C163.272 39.7877 163.55 39.5794 163.897 39.3711C164.036 39.3017 164.175 39.1976 164.314 39.1281L164.522 39.024L164.557 38.9893ZM164.383 42.0441L164.452 41.454L164.522 40.7944C163.932 41.2804 163.619 41.7664 163.619 42.2871C163.619 42.669 163.828 42.9814 164.209 43.2591C164.279 42.9467 164.348 42.5648 164.383 42.0441Z" fill="#404936"/>
<path d="M168.826 35.7609C169 34.4417 169.069 33.3656 169.069 32.4977C169.069 31.977 169.035 31.491 168.965 31.0744C168.896 30.762 168.792 30.4843 168.688 30.2066L168.514 29.9289L168.41 29.6859C168.34 29.5123 168.306 29.4081 168.306 29.3734C168.306 29.1998 168.445 29.0957 168.722 29.0957C169.312 29.0957 169.868 29.3387 170.458 29.8594C171.118 30.4843 171.43 31.2827 171.43 32.2547L171.187 36.351C171.187 36.4552 171.187 36.5593 171.222 36.6287C171.291 36.837 171.361 36.9412 171.499 36.9412C171.777 36.9412 172.263 36.5593 172.957 35.8303C173.582 35.136 173.964 34.65 174.068 34.3029C174.138 33.678 174.172 33.0531 174.172 32.4283C174.172 31.5257 174.034 30.7967 173.791 30.1718L173.617 29.8941L173.513 29.6511C173.443 29.5123 173.409 29.4428 173.409 29.3734C173.409 29.1998 173.548 29.0957 173.825 29.0957C174.415 29.0957 174.971 29.3387 175.561 29.8594C176.221 30.4843 176.533 31.2827 176.533 32.2547L176.29 36.351V36.4552L176.325 36.6634C176.394 36.837 176.533 36.9412 176.707 36.9412H176.811L176.984 36.8717C177.158 36.8023 177.297 36.7329 177.505 36.594C177.991 36.2122 178.477 35.5526 178.963 34.6153C179.241 33.8169 179.38 33.0184 179.484 32.1853C179.484 31.9076 179.484 31.6646 179.484 31.3521V30.8314C179.484 30.6579 179.484 30.4843 179.449 30.3107C179.38 30.1024 179.31 29.9288 179.171 29.79L179.241 29.7553L179.414 29.7206C179.484 29.6858 179.727 29.6859 180.109 29.6859C180.49 29.6859 180.838 29.8594 181.185 30.1718C181.567 30.5537 181.74 30.9703 181.74 31.4563C181.775 31.8034 181.74 32.3936 181.671 33.2267L181.636 33.7822L181.601 34.3723L181.497 35.5873C181.358 37.6007 181.462 38.8505 181.81 39.3365H180.907C180.213 39.3365 179.692 39.2323 179.345 39.0588C178.859 38.8158 178.546 38.3992 178.477 37.7743C177.262 38.9893 176.151 39.5795 175.11 39.5795H175.006L174.832 39.5447C174.658 39.51 174.485 39.4406 174.346 39.3018C173.964 38.9546 173.756 38.295 173.756 37.323C173.166 37.9826 172.61 38.4686 172.09 38.8157C171.361 39.3018 170.632 39.5795 169.972 39.5795C169.069 39.6489 168.618 38.9199 168.653 37.4619C168.688 36.7329 168.792 36.1427 168.826 35.7609Z" fill="#404936"/>
<path d="M187.85 29.3734C188.614 29.3734 189.239 29.79 189.725 30.6231C190.176 31.3521 190.384 32.1506 190.384 33.0184C190.384 35.4137 189.794 37.0453 188.579 37.9479C188.197 38.2256 187.711 38.4339 187.19 38.538C187.017 38.5727 186.809 38.6075 186.635 38.6075H186.288C185.246 38.6075 184.378 38.1562 183.684 37.2883C183.059 36.4899 182.747 35.4831 182.747 34.3376C182.747 33.0184 183.129 31.8034 183.892 30.7273C184.17 30.276 184.552 29.8594 185.038 29.4428C185.246 29.2345 185.524 29.2345 185.906 29.4428C186.253 29.6164 186.496 29.8594 186.6 30.2066C186.913 29.6164 187.295 29.3734 187.85 29.3734ZM188.996 33.1573C188.996 33.435 188.891 33.6433 188.718 33.7821C188.579 33.8863 188.44 33.9557 188.232 33.9557C187.538 33.9557 187.017 33.6433 186.67 33.0184C186.531 32.7754 186.461 32.5324 186.392 32.2547C186.323 32.0117 186.323 31.8034 186.323 31.6298C185.593 32.3588 185.212 33.2961 185.212 34.407V34.6153C185.212 34.7542 185.212 34.8583 185.246 34.9624C185.281 35.2749 185.35 35.5526 185.455 35.8303C185.732 36.594 186.253 36.9412 187.017 36.837H187.052L187.121 36.8023C187.225 36.8023 187.329 36.7676 187.399 36.7329C187.676 36.6287 187.919 36.4552 188.162 36.2122C188.857 35.4832 189.239 34.3376 189.239 32.7407C189.239 32.1853 189.204 31.7687 189.134 31.4563C188.996 31.0744 188.822 30.8314 188.544 30.7967C188.336 30.7967 188.197 30.9008 188.128 31.0744C188.058 31.248 188.024 31.4216 188.058 31.6646C188.128 32.2547 188.301 32.5324 188.648 32.5324C188.857 32.6366 188.996 32.8449 188.996 33.1573Z" fill="#404936"/>
<path d="M199.479 38.9893L198.959 39.024C198.542 39.024 198.195 38.9893 197.882 38.9198C197.084 38.7463 196.633 38.2256 196.598 37.3577C195.383 38.5727 194.203 39.1629 193.057 39.1629H192.71C192.536 39.1281 192.363 39.0587 192.224 38.9546C191.807 38.6421 191.634 37.9826 191.703 36.9758C191.807 36.108 191.877 35.4137 191.912 34.9277C192.016 33.8515 192.085 33.1225 192.085 32.6712C192.085 32.0117 192.05 31.4562 191.981 30.9355C191.912 30.5537 191.842 30.2413 191.738 29.9288L191.634 29.6164L191.53 29.3734C191.46 29.1998 191.426 29.0957 191.426 29.0262C191.426 28.8527 191.53 28.7485 191.773 28.7485C192.363 28.7485 192.953 29.0262 193.508 29.5817C194.133 30.2065 194.446 31.0397 194.446 32.0464C194.446 33.8168 194.446 34.9971 194.48 35.5873C194.515 36.2468 194.585 36.5593 194.758 36.5593C195.001 36.5593 195.383 36.2468 195.973 35.6567C196.216 35.4484 196.459 35.2054 196.667 34.9624C196.841 34.7194 197.015 34.5458 197.153 34.3723C197.327 33.6085 197.431 32.8101 197.535 32.0117C197.639 31.248 197.709 30.7272 197.709 30.4842C197.709 30.3107 197.709 30.1371 197.674 29.9635C197.605 29.7552 197.535 29.5817 197.396 29.4428C197.987 29.1304 198.542 29.1304 199.132 29.4428C199.722 29.79 200 30.3454 199.965 31.1091C199.965 31.2827 199.931 31.5257 199.896 31.8728L199.861 32.3935L199.826 32.9143C199.757 33.8168 199.688 34.6153 199.653 35.2748C199.549 37.2883 199.653 38.538 200 39.024H199.479V38.9893ZM197.709 27.6377C197.292 27.9848 196.841 28.1584 196.32 28.1584C195.834 28.1584 195.348 27.9848 194.828 27.6724L194.55 27.4988L194.272 27.3252C194.064 27.2211 193.89 27.1517 193.717 27.1517C193.543 27.1517 193.37 27.2211 193.196 27.3946C193.127 27.4641 193.092 27.4988 193.092 27.5682L193.057 27.6029V27.6377C192.779 27.6377 192.675 27.5335 192.675 27.2905C192.675 26.6309 193.127 26.2838 193.994 26.2838C194.272 26.2491 194.619 26.2838 195.071 26.3185L195.557 26.3532C195.73 26.3879 195.869 26.3879 195.938 26.3879C196.043 26.3879 196.147 26.3879 196.251 26.3532C196.39 26.2838 196.529 26.2144 196.633 26.1102C196.945 25.8672 197.153 25.4854 197.223 24.9299L197.258 24.9646C197.327 24.9646 197.362 24.9994 197.431 25.0341C197.57 25.1382 197.674 25.2424 197.778 25.3465C197.952 25.5201 198.091 25.6937 198.16 25.8672C198.264 26.0408 198.334 26.2491 198.334 26.4226C198.334 26.9087 198.125 27.2905 197.709 27.6377Z" fill="#404936"/>
</svg>
