<svg width="221" height="80" viewBox="0 0 221 80" fill="none" xmlns="http://www.w3.org/2000/svg">
<path d="M47.8094 31.5684L51.4937 28L68.0728 44.0577C68.0728 44.0577 66.7812 47.0928 64.3885 49.4102C60.0064 53.6545 58.8622 52.9786 58.8622 52.9786C58.8622 52.9786 64.3885 58.3312 58.8622 61.8995C58.8622 61.8995 60.2973 63.6837 58.8622 65.4679C56.5413 68.3531 53.8619 65.9808 53.404 65.5363C53.825 65.9745 55.9564 68.4425 52.9605 70.7148C52.2729 71.2363 50.6973 71.8333 49.6516 70.8205C45.9673 77.9572 40.67 71.1355 40.67 71.1355L40.2652 70.6259C40.0511 70.8716 39.8081 71.1267 39.5342 71.392C36.6501 74.1854 35.0586 74.9789 32.9364 72.9232C30.8141 70.8675 32.9995 67.9204 34.2662 66.6935C31.9208 68.7953 29.2437 71.1131 26.7976 68.744C24.7029 66.7151 26.4566 64.6575 28.3166 62.8366C25.7852 65.2512 23.4012 67.1152 20.7957 64.5917C17.8746 61.7625 21.6267 58.614 23.7173 56.5891C20.8332 59.3826 18.8711 60.344 16.7489 58.2883C14.6266 56.2325 17.5597 53.7145 18.8265 52.4876C19.1976 52.1282 19.6638 51.6955 20.1781 51.3027C18.0856 47.9981 17.5917 46.0167 18.3359 42.2735L31.2308 29.7842C31.2308 29.7842 34.5295 29.2342 36.6116 29.7842C39.114 30.4452 42.2835 33.3526 42.2835 33.3526C45.0752 32.6766 47.8094 31.5684 47.8094 31.5684Z" fill="#F6F1E4"/>
<rect x="5" y="36.3698" width="28.8072" height="11" rx="2" transform="rotate(-45 5 36.3698)" fill="#AAB89A"/>
<rect width="28.8072" height="11" rx="2" transform="matrix(-0.707107 -0.707107 -0.707107 0.707107 75.1475 36.3698)" fill="#AAB89A"/>
<path d="M49.2105 28.9209L48.8516 28.5734C48.0402 27.7875 48.0402 26.486 48.8516 25.7001L53.3454 21.3477C54.1209 20.5965 55.3527 20.5965 56.1283 21.3477L73.5168 38.1894C74.3282 38.9753 74.3282 40.2768 73.5168 41.0627L69.0231 45.4151C68.2476 46.1663 67.0158 46.1663 66.2402 45.4151L65.7896 44.9786M49.2105 28.9209L45.5262 32.4893C45.5262 32.4893 42.7919 33.5975 40.0003 34.2735M49.2105 28.9209L65.7896 44.9786M40.0003 34.2735C35.1901 35.4382 29.6864 40.5964 27.7893 42.4923C27.4041 42.8773 27.4182 43.4977 27.8094 43.8767L30.3936 46.3796C30.6399 46.6181 30.9913 46.7139 31.3246 46.6332L45.5262 43.1944L56.579 53.8995M40.0003 34.2735C40.0003 34.2735 36.8308 31.3661 34.3284 30.7051C32.2462 30.1551 28.9476 30.7051 28.9476 30.7051M56.579 53.8995C56.579 53.8995 57.7232 54.5754 62.1053 50.3312C64.498 48.0137 65.7896 44.9786 65.7896 44.9786M56.579 53.8995C56.579 53.8995 62.1053 59.2521 56.579 62.8205M56.579 62.8205L51.0526 57.4679M56.579 62.8205C56.579 62.8205 58.0141 64.6047 56.579 66.3888C54.0318 69.5555 51.0526 66.3888 51.0526 66.3888M51.0526 66.3888L46.3149 61.6364M51.0526 66.3888C51.0526 66.3888 53.9794 69.1312 50.6772 71.6357C49.9896 72.1573 48.4141 72.7543 47.3683 71.7414M43.6841 68.173C43.6841 68.173 45.5262 69.9572 47.3683 71.7414M47.3683 71.7414C43.6841 78.8782 38.3868 72.0564 38.3868 72.0564L37.9819 71.5468M26.9605 62.8626C29.8447 60.0692 31.3239 58.1683 28.8021 55.7258C26.2803 53.2833 23.5247 55.4852 21.4341 57.5101M26.9605 62.8626C24.0763 65.6561 21.4336 68.3419 18.5125 65.5126C15.5914 62.6834 19.3435 59.5349 21.4341 57.5101M26.9605 62.8626C24.8699 64.8875 22.0684 67.2958 24.5144 69.6649C26.9605 72.0341 29.6376 69.7162 31.983 67.6144M26.9605 62.8626C29.0511 60.8378 31.983 58.3436 34.3284 61.0783C36.6738 63.813 34.3284 65.5126 31.983 67.6144M21.4341 57.5101C24.3183 54.7166 23.4043 53.2212 21.7945 51.6617C20.6563 50.5592 19.1358 51.2756 17.8948 52.2236M21.4341 57.5101C18.5499 60.3035 16.5879 61.2649 14.4657 59.2092C12.3434 57.1535 15.2765 54.6354 16.5432 53.4086C16.9144 53.0491 17.3806 52.6165 17.8948 52.2236M31.983 67.6144C30.7163 68.8413 28.5309 71.7884 30.6532 73.8441C32.7754 75.8998 34.3669 75.1064 37.251 72.3129C37.5249 72.0476 37.7679 71.7926 37.9819 71.5468M31.983 67.6144C33.2497 66.3876 36.3721 64.7372 37.9819 66.2967C39.439 67.708 40.0224 69.2045 37.9819 71.5468M16.0527 43.1944L13.7599 45.4151C12.9844 46.1663 11.7526 46.1663 10.977 45.4151L6.48327 41.0627C5.67186 40.2768 5.67186 38.9753 6.48327 38.1894L23.8719 21.3477C24.6474 20.5965 25.8792 20.5965 26.6548 21.3477L31.1485 25.7001C31.9599 26.486 31.9599 27.7875 31.1485 28.5734L28.9476 30.7051M16.0527 43.1944L28.9476 30.7051M16.0527 43.1944C15.3085 46.9376 15.8024 48.919 17.8948 52.2236" stroke="#547147" stroke-width="2" stroke-linecap="round" stroke-linejoin="round"/>
<path fill-rule="evenodd" clip-rule="evenodd" d="M34.8806 5.74549C34.3809 5.85461 34.036 6.31792 34.0911 6.82644C34.4355 10.004 34.9678 12.6365 36.1549 14.7241C37.3675 16.8567 39.3273 18.5328 41.5363 19.7525C41.8244 19.9116 42.1741 19.9086 42.4605 19.7467C44.7871 18.432 46.7802 16.7578 47.9366 14.7241C49.0598 12.7489 49.562 10.1382 49.9045 6.89228C49.9611 6.35656 49.5759 5.8791 49.0447 5.78925C47.9956 5.61178 47.0801 5.37982 46.2982 5.09337C45.3768 4.75577 44.1043 4.14585 42.4809 3.26364C42.1809 3.10058 41.8185 3.09931 41.5173 3.26015C40.0664 4.03477 38.9318 4.572 38.1134 4.87183C37.3579 5.14864 36.2803 5.43987 34.8806 5.74549Z" fill="#F6F1E4"/>
<path fill-rule="evenodd" clip-rule="evenodd" d="M32 7.93103C32.3427 11.5125 32.8581 14.4435 34.1549 16.7241C35.4517 19.0048 37.603 20.7634 40 22C42.5228 20.6494 44.7046 18.8908 45.9366 16.7241C47.1686 14.5575 47.6535 11.6265 48 7.93103C46.5427 7.74285 45.3088 7.46363 44.2982 7.09337C43.2876 6.72311 41.8549 6.02532 40 5C38.316 5.91557 37.0205 6.53951 36.1134 6.87183C35.2064 7.20414 33.8353 7.55721 32 7.93103Z" stroke="#547147" stroke-width="2" stroke-linecap="round" stroke-linejoin="round"/>
<path d="M103.488 24.8V36H101.44V26.56H95.632V36H93.584V24.8H103.488ZM111.158 27.36C111.99 27.36 112.731 27.5413 113.382 27.904C114.043 28.2667 114.561 28.7787 114.934 29.44C115.307 30.1013 115.494 30.864 115.494 31.728C115.494 32.592 115.307 33.36 114.934 34.032C114.561 34.6933 114.043 35.2053 113.382 35.568C112.731 35.9307 111.99 36.112 111.158 36.112C110.006 36.112 109.094 35.728 108.422 34.96V39.104H106.422V27.456H108.326V28.576C108.657 28.1707 109.062 27.8667 109.542 27.664C110.033 27.4613 110.571 27.36 111.158 27.36ZM110.934 34.4C111.67 34.4 112.273 34.1547 112.742 33.664C113.222 33.1733 113.462 32.528 113.462 31.728C113.462 30.928 113.222 30.2827 112.742 29.792C112.273 29.3013 111.67 29.056 110.934 29.056C110.454 29.056 110.022 29.168 109.638 29.392C109.254 29.6053 108.95 29.9147 108.726 30.32C108.502 30.7253 108.39 31.1947 108.39 31.728C108.39 32.2613 108.502 32.7307 108.726 33.136C108.95 33.5413 109.254 33.856 109.638 34.08C110.022 34.2933 110.454 34.4 110.934 34.4ZM121.293 36.112C120.429 36.112 119.65 35.9253 118.957 35.552C118.263 35.1787 117.719 34.6613 117.325 34C116.941 33.328 116.749 32.5707 116.749 31.728C116.749 30.8853 116.941 30.1333 117.325 29.472C117.719 28.8107 118.263 28.2933 118.957 27.92C119.65 27.5467 120.429 27.36 121.293 27.36C122.167 27.36 122.951 27.5467 123.645 27.92C124.338 28.2933 124.877 28.8107 125.261 29.472C125.655 30.1333 125.853 30.8853 125.853 31.728C125.853 32.5707 125.655 33.328 125.261 34C124.877 34.6613 124.338 35.1787 123.645 35.552C122.951 35.9253 122.167 36.112 121.293 36.112ZM121.293 34.4C122.029 34.4 122.637 34.1547 123.117 33.664C123.597 33.1733 123.837 32.528 123.837 31.728C123.837 30.928 123.597 30.2827 123.117 29.792C122.637 29.3013 122.029 29.056 121.293 29.056C120.557 29.056 119.949 29.3013 119.469 29.792C118.999 30.2827 118.765 30.928 118.765 31.728C118.765 32.528 118.999 33.1733 119.469 33.664C119.949 34.1547 120.557 34.4 121.293 34.4ZM134.02 31.552C135.076 31.872 135.604 32.5547 135.604 33.6C135.604 34.368 135.316 34.96 134.74 35.376C134.164 35.792 133.311 36 132.18 36H127.828V27.456H132.004C133.05 27.456 133.866 27.648 134.452 28.032C135.039 28.416 135.332 28.96 135.332 29.664C135.332 30.1013 135.215 30.48 134.98 30.8C134.756 31.12 134.436 31.3707 134.02 31.552ZM129.732 31.024H131.828C132.863 31.024 133.38 30.6667 133.38 29.952C133.38 29.2587 132.863 28.912 131.828 28.912H129.732V31.024ZM132.02 34.544C133.119 34.544 133.668 34.1867 133.668 33.472C133.668 33.0987 133.54 32.8213 133.284 32.64C133.028 32.448 132.628 32.352 132.084 32.352H129.732V34.544H132.02ZM145.735 31.776C145.735 31.9147 145.724 32.112 145.703 32.368H138.999C139.116 32.9973 139.42 33.4987 139.911 33.872C140.412 34.2347 141.031 34.416 141.767 34.416C142.705 34.416 143.479 34.1067 144.087 33.488L145.159 34.72C144.775 35.1787 144.289 35.5253 143.703 35.76C143.116 35.9947 142.455 36.112 141.719 36.112C140.78 36.112 139.953 35.9253 139.239 35.552C138.524 35.1787 137.969 34.6613 137.575 34C137.191 33.328 136.999 32.5707 136.999 31.728C136.999 30.896 137.185 30.1493 137.559 29.488C137.943 28.816 138.471 28.2933 139.143 27.92C139.815 27.5467 140.572 27.36 141.415 27.36C142.247 27.36 142.988 27.5467 143.639 27.92C144.3 28.2827 144.812 28.8 145.175 29.472C145.548 30.1333 145.735 30.9013 145.735 31.776ZM141.415 28.96C140.775 28.96 140.231 29.152 139.783 29.536C139.345 29.9093 139.079 30.4107 138.983 31.04H143.831C143.745 30.4213 143.484 29.92 143.047 29.536C142.609 29.152 142.065 28.96 141.415 28.96ZM152.658 27.36C153.49 27.36 154.231 27.5413 154.882 27.904C155.543 28.2667 156.061 28.7787 156.434 29.44C156.807 30.1013 156.994 30.864 156.994 31.728C156.994 32.592 156.807 33.36 156.434 34.032C156.061 34.6933 155.543 35.2053 154.882 35.568C154.231 35.9307 153.49 36.112 152.658 36.112C151.506 36.112 150.594 35.728 149.922 34.96V39.104H147.922V27.456H149.826V28.576C150.157 28.1707 150.562 27.8667 151.042 27.664C151.533 27.4613 152.071 27.36 152.658 27.36ZM152.434 34.4C153.17 34.4 153.773 34.1547 154.242 33.664C154.722 33.1733 154.962 32.528 154.962 31.728C154.962 30.928 154.722 30.2827 154.242 29.792C153.773 29.3013 153.17 29.056 152.434 29.056C151.954 29.056 151.522 29.168 151.138 29.392C150.754 29.6053 150.45 29.9147 150.226 30.32C150.002 30.7253 149.89 31.1947 149.89 31.728C149.89 32.2613 150.002 32.7307 150.226 33.136C150.45 33.5413 150.754 33.856 151.138 34.08C151.522 34.2933 151.954 34.4 152.434 34.4ZM166.985 31.776C166.985 31.9147 166.974 32.112 166.953 32.368H160.249C160.366 32.9973 160.67 33.4987 161.161 33.872C161.662 34.2347 162.281 34.416 163.017 34.416C163.955 34.416 164.729 34.1067 165.337 33.488L166.409 34.72C166.025 35.1787 165.539 35.5253 164.953 35.76C164.366 35.9947 163.705 36.112 162.969 36.112C162.03 36.112 161.203 35.9253 160.489 35.552C159.774 35.1787 159.219 34.6613 158.825 34C158.441 33.328 158.249 32.5707 158.249 31.728C158.249 30.896 158.435 30.1493 158.809 29.488C159.193 28.816 159.721 28.2933 160.393 27.92C161.065 27.5467 161.822 27.36 162.665 27.36C163.497 27.36 164.238 27.5467 164.889 27.92C165.55 28.2827 166.062 28.8 166.425 29.472C166.798 30.1333 166.985 30.9013 166.985 31.776ZM162.665 28.96C162.025 28.96 161.481 29.152 161.033 29.536C160.595 29.9093 160.329 30.4107 160.233 31.04H165.081C164.995 30.4213 164.734 29.92 164.297 29.536C163.859 29.152 163.315 28.96 162.665 28.96ZM169.172 27.456H171.172V30.928H175.476V27.456H177.476V36H175.476V32.624H171.172V36H169.172V27.456ZM180.157 27.456H182.157V30.928H186.461V27.456H188.461V36H186.461V32.624H182.157V36H180.157V27.456ZM195.301 30.272C196.389 30.272 197.221 30.5173 197.797 31.008C198.373 31.4987 198.661 32.192 198.661 33.088C198.661 34.0267 198.341 34.752 197.701 35.264C197.072 35.776 196.176 36.0267 195.013 36.016L191.141 36V27.456H193.141V30.256L195.301 30.272ZM199.765 27.456H201.765V36H199.765V27.456ZM194.837 34.544C195.424 34.5547 195.872 34.432 196.181 34.176C196.49 33.92 196.645 33.5467 196.645 33.056C196.645 32.576 196.496 32.224 196.197 32C195.898 31.776 195.445 31.6587 194.837 31.648L193.141 31.632V34.528L194.837 34.544ZM212.453 31.776C212.453 31.9147 212.443 32.112 212.421 32.368H205.717C205.835 32.9973 206.139 33.4987 206.629 33.872C207.131 34.2347 207.749 34.416 208.485 34.416C209.424 34.416 210.197 34.1067 210.805 33.488L211.877 34.72C211.493 35.1787 211.008 35.5253 210.421 35.76C209.835 35.9947 209.173 36.112 208.437 36.112C207.499 36.112 206.672 35.9253 205.957 35.552C205.243 35.1787 204.688 34.6613 204.293 34C203.909 33.328 203.717 32.5707 203.717 31.728C203.717 30.896 203.904 30.1493 204.277 29.488C204.661 28.816 205.189 28.2933 205.861 27.92C206.533 27.5467 207.291 27.36 208.133 27.36C208.965 27.36 209.707 27.5467 210.357 27.92C211.019 28.2827 211.531 28.8 211.893 29.472C212.267 30.1333 212.453 30.9013 212.453 31.776ZM208.133 28.96C207.493 28.96 206.949 29.152 206.501 29.536C206.064 29.9093 205.797 30.4107 205.701 31.04H210.549C210.464 30.4213 210.203 29.92 209.765 29.536C209.328 29.152 208.784 28.96 208.133 28.96ZM101.536 47.456V56H99.552V49.152H95.344V56H93.344V47.456H101.536ZM107.419 47.36C108.677 47.36 109.637 47.664 110.299 48.272C110.971 48.8693 111.307 49.776 111.307 50.992V56H109.419V54.96C109.173 55.3333 108.821 55.6213 108.363 55.824C107.915 56.016 107.371 56.112 106.731 56.112C106.091 56.112 105.531 56.0053 105.051 55.792C104.571 55.568 104.197 55.264 103.931 54.88C103.675 54.4853 103.547 54.0427 103.547 53.552C103.547 52.784 103.829 52.1707 104.395 51.712C104.971 51.2427 105.872 51.008 107.099 51.008H109.307V50.88C109.307 50.2827 109.125 49.824 108.763 49.504C108.411 49.184 107.883 49.024 107.179 49.024C106.699 49.024 106.224 49.0987 105.755 49.248C105.296 49.3973 104.907 49.6053 104.587 49.872L103.803 48.416C104.251 48.0747 104.789 47.8133 105.419 47.632C106.048 47.4507 106.715 47.36 107.419 47.36ZM107.147 54.656C107.648 54.656 108.091 54.544 108.475 54.32C108.869 54.0853 109.147 53.7547 109.307 53.328V52.336H107.243C106.091 52.336 105.515 52.7147 105.515 53.472C105.515 53.8347 105.659 54.1227 105.947 54.336C106.235 54.5493 106.635 54.656 107.147 54.656ZM118.518 47.36C119.35 47.36 120.091 47.5413 120.742 47.904C121.403 48.2667 121.92 48.7787 122.294 49.44C122.667 50.1013 122.854 50.864 122.854 51.728C122.854 52.592 122.667 53.36 122.294 54.032C121.92 54.6933 121.403 55.2053 120.742 55.568C120.091 55.9307 119.35 56.112 118.518 56.112C117.366 56.112 116.454 55.728 115.782 54.96V59.104H113.782V47.456H115.686V48.576C116.016 48.1707 116.422 47.8667 116.902 47.664C117.392 47.4613 117.931 47.36 118.518 47.36ZM118.294 54.4C119.03 54.4 119.632 54.1547 120.102 53.664C120.582 53.1733 120.822 52.528 120.822 51.728C120.822 50.928 120.582 50.2827 120.102 49.792C119.632 49.3013 119.03 49.056 118.294 49.056C117.814 49.056 117.382 49.168 116.998 49.392C116.614 49.6053 116.31 49.9147 116.086 50.32C115.862 50.7253 115.75 51.1947 115.75 51.728C115.75 52.2613 115.862 52.7307 116.086 53.136C116.31 53.5413 116.614 53.856 116.998 54.08C117.382 54.2933 117.814 54.4 118.294 54.4ZM131.3 49.152H128.308V56H126.308V49.152H123.3V47.456H131.3V49.152ZM132.75 47.456H134.75V50.928H139.054V47.456H141.054V56H139.054V52.624H134.75V56H132.75V47.456ZM151.735 51.776C151.735 51.9147 151.724 52.112 151.703 52.368H144.999C145.116 52.9973 145.42 53.4987 145.911 53.872C146.412 54.2347 147.031 54.416 147.767 54.416C148.705 54.416 149.479 54.1067 150.087 53.488L151.159 54.72C150.775 55.1787 150.289 55.5253 149.703 55.76C149.116 55.9947 148.455 56.112 147.719 56.112C146.78 56.112 145.953 55.9253 145.239 55.552C144.524 55.1787 143.969 54.6613 143.575 54C143.191 53.328 142.999 52.5707 142.999 51.728C142.999 50.896 143.185 50.1493 143.559 49.488C143.943 48.816 144.471 48.2933 145.143 47.92C145.815 47.5467 146.572 47.36 147.415 47.36C148.247 47.36 148.988 47.5467 149.639 47.92C150.3 48.2827 150.812 48.8 151.175 49.472C151.548 50.1333 151.735 50.9013 151.735 51.776ZM147.415 48.96C146.775 48.96 146.231 49.152 145.783 49.536C145.345 49.9093 145.079 50.4107 144.983 51.04H149.831C149.745 50.4213 149.484 49.92 149.047 49.536C148.609 49.152 148.065 48.96 147.415 48.96ZM145.815 46.112C145.537 46.112 145.308 46.0213 145.127 45.84C144.945 45.6587 144.855 45.4293 144.855 45.152C144.855 44.864 144.945 44.6293 145.127 44.448C145.308 44.2667 145.537 44.176 145.815 44.176C146.092 44.176 146.321 44.2667 146.503 44.448C146.684 44.6293 146.775 44.864 146.775 45.152C146.775 45.4293 146.684 45.6587 146.503 45.84C146.321 46.0213 146.092 46.112 145.815 46.112ZM148.919 46.112C148.641 46.112 148.412 46.0213 148.231 45.84C148.049 45.6587 147.959 45.4293 147.959 45.152C147.959 44.864 148.049 44.6293 148.231 44.448C148.412 44.2667 148.641 44.176 148.919 44.176C149.196 44.176 149.425 44.2667 149.607 44.448C149.788 44.6293 149.879 44.864 149.879 45.152C149.879 45.4293 149.788 45.6587 149.607 45.84C149.425 46.0213 149.196 46.112 148.919 46.112ZM158.658 47.36C159.49 47.36 160.231 47.5413 160.882 47.904C161.543 48.2667 162.061 48.7787 162.434 49.44C162.807 50.1013 162.994 50.864 162.994 51.728C162.994 52.592 162.807 53.36 162.434 54.032C162.061 54.6933 161.543 55.2053 160.882 55.568C160.231 55.9307 159.49 56.112 158.658 56.112C157.506 56.112 156.594 55.728 155.922 54.96V59.104H153.922V47.456H155.826V48.576C156.157 48.1707 156.562 47.8667 157.042 47.664C157.533 47.4613 158.071 47.36 158.658 47.36ZM158.434 54.4C159.17 54.4 159.773 54.1547 160.242 53.664C160.722 53.1733 160.962 52.528 160.962 51.728C160.962 50.928 160.722 50.2827 160.242 49.792C159.773 49.3013 159.17 49.056 158.434 49.056C157.954 49.056 157.522 49.168 157.138 49.392C156.754 49.6053 156.45 49.9147 156.226 50.32C156.002 50.7253 155.89 51.1947 155.89 51.728C155.89 52.2613 156.002 52.7307 156.226 53.136C156.45 53.5413 156.754 53.856 157.138 54.08C157.522 54.2933 157.954 54.4 158.434 54.4ZM169.145 50.272C170.233 50.272 171.065 50.5173 171.641 51.008C172.217 51.4987 172.505 52.192 172.505 53.088C172.505 54.0267 172.185 54.752 171.545 55.264C170.915 55.776 170.019 56.0267 168.857 56.016L164.985 56V47.456H166.985V50.256L169.145 50.272ZM173.609 47.456H175.609V56H173.609V47.456ZM168.681 54.544C169.267 54.5547 169.715 54.432 170.025 54.176C170.334 53.92 170.489 53.5467 170.489 53.056C170.489 52.576 170.339 52.224 170.041 52C169.742 51.776 169.289 51.6587 168.681 51.648L166.985 51.632V54.528L168.681 54.544Z" fill="#333333"/>
</svg>
