<svg width="42" height="43" viewBox="0 0 42 43" fill="none" xmlns="http://www.w3.org/2000/svg">
<path d="M26.2125 35.4844C26.2125 35.4844 27.7344 35.5782 28.266 37.7776C28.266 37.7776 28.4224 39.3308 29.4752 39.4871C28.7247 39.6435 28.412 39.9562 28.3598 40.2481C27.6093 39.4246 27.38 38.4135 27.2862 37.8297C27.1924 37.173 26.3585 36.1515 26.3585 36.1515L26.2125 35.4844Z" fill="#E5880E"/>
<path d="M23.1791 33.9417C23.1791 33.9417 26.2228 33.358 27.4841 35.3802C29.1728 38.08 31.1638 37.8298 32.4563 37.2878C31.612 38.0591 31.539 38.9139 31.539 38.9139C31.539 38.9139 28.5161 38.9452 27.2757 36.8187C26.473 35.7555 25.8059 35.547 25.8059 35.547L23.1791 33.9417Z" fill="#E8AE08"/>
<path d="M23.1271 33.7853L24.7219 27.9062" stroke="#404936" stroke-width="0.396196" stroke-miterlimit="10"/>
<path d="M26.0667 40.5922H18.2592C18.0299 40.5922 17.8527 40.4045 17.8527 40.1856V34.2649H26.4836V40.1752C26.4836 40.4045 26.296 40.5922 26.0667 40.5922Z" fill="#61664A"/>
<path d="M15.1633 27.2599L20.3023 34.0875" stroke="#404936" stroke-width="0.396196" stroke-miterlimit="10"/>
<path d="M29.5796 27.2599L24.451 34.0875" stroke="#404936" stroke-width="0.396196" stroke-miterlimit="10"/>
<path d="M21.626 33.7853L20.0311 27.9062" stroke="#404936" stroke-width="0.396196" stroke-miterlimit="10"/>
<path d="M37.4286 14.4387C37.4286 21.6103 33.0298 27.5102 27.4009 28.1982C31.4141 25.9466 34.2389 20.6409 34.2389 14.4387C34.2389 8.24692 31.4141 2.93075 27.4009 0.679199C33.0298 1.3776 37.4286 7.26708 37.4286 14.4387Z" fill="#404936"/>
<path d="M17.2272 28.1982C11.5983 27.5102 7.19946 21.6103 7.19946 14.4387C7.19946 7.26708 11.5983 1.36717 17.2272 0.679199C13.214 2.93075 10.3892 8.24692 10.3892 14.4387C10.3892 20.6409 13.214 25.9466 17.2272 28.1982Z" fill="#404936"/>
<path d="M21.9493 2.03421C21.9493 0.595717 20.5004 -0.373702 19.1557 0.157915C18.7804 0.303849 18.4052 0.481054 18.0403 0.689531C14.0271 2.94108 11.2023 8.25725 11.2023 14.449C11.2023 20.6408 14.0271 25.957 18.0403 28.2085C18.4052 28.4066 18.77 28.5838 19.1557 28.7401C20.4899 29.2717 21.9493 28.3023 21.9493 26.8638V2.03421Z" fill="#547147"/>
<path d="M18.895 32.3364C18.3217 33.8583 21.9284 34.3482 21.9284 34.3482C21.9284 34.3482 21.7928 36.2453 22.2098 34.1501C22.6268 32.055 21.3759 30.4914 20.9485 30.3037C20.5211 30.0953 19.4683 30.8041 18.895 32.3364ZM21.3863 31.8048C21.7512 32.1696 22.1473 33.5664 22.1473 33.5664L22.0222 33.9625C22.0222 33.9625 19.8227 33.2954 20.1146 32.7221C20.4065 32.1488 21.0319 31.4399 21.3863 31.8048Z" fill="#E5880E"/>
<path d="M26.6503 0.679155C26.2854 0.481102 25.9206 0.303897 25.5349 0.147539C24.2007 -0.384078 22.7413 0.585341 22.7413 2.02383V26.8535C22.7413 28.292 24.1902 29.2614 25.5349 28.7298C25.9102 28.5838 26.2854 28.4066 26.6503 28.1981C30.6635 25.9466 33.4883 20.6408 33.4883 14.4386C33.4883 8.24687 30.6635 2.94113 26.6503 0.679155Z" fill="#547147"/>
<path d="M22.5851 34.7026H21.7407V40.613H22.5851V34.7026Z" fill="white"/>
<path d="M26.4905 37.7566V36.9122H17.7866V37.7566H26.4905Z" fill="white"/>
<path d="M23.3564 30.2204C21.7303 30.0744 22.241 33.6811 22.241 33.6811C22.241 33.6811 20.3752 34.0668 22.512 33.9C24.6385 33.7332 25.806 32.1071 25.879 31.6484C25.9519 31.1898 24.9825 30.3663 23.3564 30.2204ZM24.5447 32.4928C24.2945 32.941 23.0541 33.7019 23.0541 33.7019L22.6476 33.6915C22.6476 33.6915 22.6997 31.3878 23.3251 31.5234C23.9505 31.6484 24.7949 32.0446 24.5447 32.4928Z" fill="#E8AE08"/>
<path opacity="0.64" d="M17.8527 34.7339L26.4836 34.7235V35.2655L17.8527 34.9633V34.7339Z" fill="#61664A"/>
<path opacity="0.32" d="M22.189 42.9999C26.1094 42.9999 29.2876 42.8319 29.2876 42.6246C29.2876 42.4174 26.1094 42.2494 22.189 42.2494C18.2685 42.2494 15.0903 42.4174 15.0903 42.6246C15.0903 42.8319 18.2685 42.9999 22.189 42.9999Z" fill="#506C44"/>
<path d="M26.6713 34.734H17.6546C17.5295 34.734 17.4253 34.6297 17.4253 34.5046V33.8584C17.4253 33.7333 17.5295 33.629 17.6546 33.629H26.6713C26.7963 33.629 26.9006 33.7333 26.9006 33.8584V34.5046C26.9006 34.6297 26.7963 34.734 26.6713 34.734Z" fill="#3E432F"/>
<path d="M22.7311 33.629H21.6157V34.734H22.7311V33.629Z" fill="white"/>
<path d="M34.0825 28.6047L34.2076 29.178C34.218 29.2197 34.2389 29.251 34.2806 29.2614L34.8226 29.4803C34.9164 29.522 34.9269 29.6367 34.833 29.6888L34.3223 29.9807C34.291 30.0015 34.2702 30.0328 34.2597 30.0745L34.218 30.6582C34.2076 30.752 34.0929 30.8042 34.02 30.7416L33.5822 30.3559C33.5509 30.3351 33.5092 30.3247 33.4779 30.3247L32.9046 30.4602C32.8108 30.481 32.7274 30.3872 32.7691 30.2934L33.0089 29.7513C33.0193 29.7201 33.0193 29.6784 32.9984 29.6471L32.6857 29.1468C32.6336 29.0634 32.6962 28.9591 32.8004 28.9696L33.3841 29.0321C33.4258 29.0321 33.4571 29.0217 33.4884 28.9904L33.8636 28.5422C33.947 28.4796 34.0617 28.5109 34.0825 28.6047Z" fill="#E8AE08"/>
<path d="M10.1911 29.72L10.7227 29.9701C10.754 29.991 10.7957 29.9806 10.8374 29.9701L11.3481 29.6783C11.4315 29.6261 11.5358 29.6991 11.5254 29.7929L11.4524 30.3767C11.4524 30.4184 11.4628 30.4496 11.4941 30.4809L11.9319 30.877C12.0048 30.9396 11.9736 31.0646 11.8798 31.0855L11.3065 31.1897C11.2648 31.2002 11.2335 31.221 11.2231 31.2627L10.9833 31.7943C10.9416 31.8881 10.8165 31.8881 10.7748 31.8047L10.4934 31.294C10.4725 31.2627 10.4413 31.2418 10.3996 31.2314L9.81584 31.1689C9.72203 31.1585 9.68033 31.0438 9.74287 30.9708L10.1494 30.5434C10.1807 30.5122 10.1911 30.4809 10.1807 30.4392L10.0556 29.8659C10.0035 29.7617 10.0973 29.6783 10.1911 29.72Z" fill="#E8AE08"/>
<path d="M1.53926 14.7723L1.58096 15.356C1.58096 15.3977 1.6018 15.429 1.6435 15.4498L2.15427 15.7521C2.23766 15.8042 2.22724 15.9293 2.14385 15.9606L1.60181 16.1795C1.57053 16.1899 1.53926 16.2212 1.52884 16.2629L1.40375 16.8362C1.3829 16.93 1.25782 16.9613 1.19527 16.8883L0.820016 16.4401C0.799168 16.4088 0.757473 16.3984 0.715778 16.3984L0.132041 16.4505C0.0382263 16.4609 -0.0347397 16.3567 0.0173796 16.2733L0.330095 15.7729C0.350943 15.7417 0.350942 15.7 0.340518 15.6687L0.111194 15.1267C0.0694982 15.0328 0.152889 14.939 0.246704 14.9703L0.820016 15.1162C0.861712 15.1267 0.892983 15.1162 0.924255 15.085L1.36206 14.6993C1.41418 14.6263 1.52884 14.6784 1.53926 14.7723Z" fill="#E8AE08"/>
<path d="M39.8156 8.11141L40.2638 8.4971C40.2951 8.51794 40.3368 8.52837 40.3681 8.51794L40.9414 8.37201C41.0352 8.35116 41.1186 8.44498 41.0769 8.52837L40.8476 9.07041C40.8371 9.10168 40.8371 9.14337 40.858 9.17465L41.1707 9.67499C41.2228 9.75838 41.1603 9.86262 41.056 9.8522L40.4723 9.80008C40.4306 9.80008 40.3993 9.8105 40.3681 9.84177L39.9928 10.29C39.9303 10.363 39.8052 10.3317 39.7843 10.2379L39.6488 9.66457C39.6384 9.62287 39.6175 9.5916 39.5758 9.58118L39.0338 9.36227C38.94 9.331 38.9296 9.20592 39.013 9.1538L39.5133 8.85151C39.5446 8.83066 39.5654 8.79939 39.5654 8.75769L39.5967 8.17396C39.628 8.09056 39.7426 8.04887 39.8156 8.11141Z" fill="#E8AE08"/>
<path opacity="0.33" d="M33.5405 14.4386C33.5405 13.8027 33.5093 13.1773 33.4467 12.5519C31.9248 21.2141 23.3251 24.1849 22.804 24.3621V26.843C22.804 28.2815 24.2529 29.2509 25.5975 28.7193C25.9728 28.5733 26.3481 28.3961 26.7129 28.1877C30.7261 25.9465 33.5405 20.6408 33.5405 14.4386Z" fill="#547147"/>
<path opacity="0.33" d="M37.3765 15.7937C36.1048 19.6505 32.7483 23.0383 31.5392 24.1641C30.4238 25.9048 29.0062 27.2912 27.4009 28.1981C32.6649 27.5518 36.8553 22.3399 37.3765 15.7937Z" fill="#404936"/>
<path opacity="0.33" d="M21.9131 19C21.8088 20.3343 20.902 22.6588 17.952 23.3572C15.0125 24.0556 12.271 20.4385 12 20.0737C13.1154 23.7324 15.2939 26.672 18.0146 28.1938C18.3794 28.3919 18.7442 28.5691 19.1299 28.7255C20.4642 29.2571 21.9235 28.2877 21.9235 26.8492V19H21.9131Z" fill="#547147"/>
<path opacity="0.33" d="M11.4002 25.2587C13.0263 26.8744 15.0277 27.9272 17.2167 28.1982C14.2355 26.5304 11.911 23.1635 10.9103 19.0148C11.4419 21.8292 11.4419 24.1642 11.4002 25.2587Z" fill="#404936"/>
<path opacity="0.39" d="M19.2182 0.157915C18.8429 0.303849 18.4676 0.481054 18.1028 0.689531C14.9444 2.46159 12.5365 6.12036 11.64 10.6026C12.4427 8.50742 15.1945 3.15999 22.0013 4.36915V2.03421C22.0118 0.595717 20.5524 -0.373702 19.2182 0.157915Z" fill="#547147"/>
<path opacity="0.39" d="M17.2272 0.679199C11.7859 1.34633 7.49128 6.88139 7.20984 13.7403C8.66918 7.53809 12.8283 4.51518 13.558 4.02526C14.6004 2.60761 15.8408 1.46099 17.2272 0.679199Z" fill="#404936"/>
<path opacity="0.39" d="M26.0145 4.12945C28.6934 3.4936 30.3612 4.5881 31.4349 5.70345C30.2466 3.50402 28.61 1.75281 26.7129 0.679155C26.3481 0.481102 25.9832 0.303897 25.5975 0.147539C24.2633 -0.384078 22.804 0.585341 22.804 2.02383V9.03909C23.1896 6.94389 24.0548 4.59853 26.0145 4.12945Z" fill="#547147"/>
<g opacity="0.39">
<path d="M33.728 9.95581L33.7384 9.97656C33.7384 9.97656 33.728 9.92468 33.6969 9.82092C33.7073 9.8728 33.7176 9.91431 33.728 9.95581Z" fill="#404936"/>
<path d="M32.6232 3.06621C31.1118 1.76323 29.3293 0.9189 27.4009 0.689575C30.2049 2.26358 32.4148 5.31777 33.5093 9.1329C33.134 7.65271 32.446 4.66106 32.6232 3.06621Z" fill="#404936"/>
</g>
</svg>
