<svg width="80" height="80" viewBox="0 0 80 80" fill="none" xmlns="http://www.w3.org/2000/svg">
<rect width="80" height="80" fill="white"/>
<path d="M55 51C67.1503 51 77 41.1503 77 29C77 16.8497 67.1503 7 55 7C42.8497 7 33 16.8497 33 29C33 41.1503 42.8497 51 55 51Z" fill="#AAB89A"/>
<path d="M53 50C65.1503 50 75 40.1503 75 28C75 15.8497 65.1503 6 53 6C40.8497 6 31 15.8497 31 28" stroke="#547147" stroke-width="2" stroke-linecap="round" stroke-linejoin="round"/>
<path fill-rule="evenodd" clip-rule="evenodd" d="M51.4971 44V41.276C46.5108 40.4407 44.2475 36.6634 44 33.6852L48.8802 32.5593C49.057 34.6659 50.4715 36.5545 53.5128 36.5545C55.2809 36.5545 56.554 35.6828 56.554 34.2663C56.554 33.2131 55.776 32.523 54.3615 32.1961L51.2141 31.4334C47.2534 30.4528 44.8134 27.9831 44.8134 24.5327C44.8134 20.4649 47.7839 17.6683 51.4971 17.0145V14H55.5639V17.1235C59.4538 17.9952 61.222 20.8644 61.7171 23.3341L56.8016 24.678C56.5894 23.5521 55.9882 21.6634 53.1945 21.6634C51.2141 21.6634 50.224 22.862 50.224 24.0242C50.224 25.0048 50.9312 25.7676 52.3104 26.0944L55.387 26.7845C60.1257 27.8741 62 30.707 62 33.9758C62 37.3172 59.666 40.4407 55.5639 41.2034V43.9274L51.4971 44Z" stroke="#F6F1E4" stroke-width="2" stroke-linecap="round" stroke-linejoin="round"/>
<path fill-rule="evenodd" clip-rule="evenodd" d="M21.2643 50.2579H21.8754C23.3252 50.2579 24.6633 49.4748 25.3119 48.1782C26.5222 45.759 28.3503 41.7488 28.6728 39.0175C28.8119 37.8389 28.9115 36.4446 28.9828 35.0525C29.141 31.9615 32.514 30.1702 34.4864 32.5552C35.6665 33.9822 36.5786 35.6442 36.5945 37.3821C36.6401 42.3559 35.0924 45.3193 35.0924 45.3193C35.0924 45.3193 44.6161 45.3193 46.9646 45.3193C49.3131 45.3193 51.936 46.51 51.9247 48.8684C51.9134 51.2268 48.9205 52.2333 48.9205 52.2333C48.9205 52.2333 51.0081 52.8598 50.896 55.1965C50.7838 57.5332 47.9328 58.1298 47.9328 58.1298C47.9328 58.1298 49.5704 59.8351 48.9205 61.621C48.2706 63.4069 45.9894 63.662 45.9894 63.662C45.9894 63.662 47.3799 65.2153 47.1271 66.6879C46.8744 68.1606 45.0463 69.0246 42.9942 69.0246C41.6508 69.0246 34.4472 69.0246 29.6317 69.0246C26.7268 69.0246 23.8626 68.3482 21.2643 67.0491V67.0491" fill="#F6F1E4"/>
<path d="M19.2643 52.2579H19.8754C21.3252 52.2579 22.6633 51.4748 23.3119 50.1782C24.5222 47.759 26.3503 43.7488 26.6728 41.0175C26.8119 39.8389 26.9115 38.4446 26.9828 37.0525C27.141 33.9615 30.514 32.1702 32.4864 34.5552C33.6665 35.9822 34.5786 37.6442 34.5945 39.3821C34.6401 44.3559 33.0924 47.3193 33.0924 47.3193C33.0924 47.3193 42.6161 47.3193 44.9646 47.3193C47.3131 47.3193 49.936 48.51 49.9247 50.8684C49.9134 53.2268 46.9205 54.2333 46.9205 54.2333C46.9205 54.2333 49.0081 54.8598 48.896 57.1965C48.7838 59.5332 45.9328 60.1298 45.9328 60.1298C45.9328 60.1298 47.5704 61.8351 46.9205 63.621C46.2706 65.4069 43.9894 65.662 43.9894 65.662C43.9894 65.662 45.3799 67.2153 45.1271 68.6879C44.8744 70.1606 43.0463 71.0246 40.9942 71.0246C39.6508 71.0246 32.4472 71.0246 27.6317 71.0246C24.7268 71.0246 21.8626 70.3482 19.2643 69.0491V69.0491" stroke="#547147" stroke-width="2" stroke-linecap="round" stroke-linejoin="round"/>
<path fill-rule="evenodd" clip-rule="evenodd" d="M12.0783 71C10.6056 71 9.41168 69.8061 9.41168 68.3333V49.9613C9.41168 48.4886 10.6056 47.2947 12.0783 47.2947H18.5977C20.0704 47.2947 21.2643 48.4886 21.2643 49.9613V68.3333C21.2643 69.8061 20.0704 71 18.5977 71H12.0783Z" fill="#AAB89A"/>
<path fill-rule="evenodd" clip-rule="evenodd" d="M10.0783 73C8.60559 73 7.41168 71.8061 7.41168 70.3333V51.9613C7.41168 50.4886 8.60559 49.2947 10.0783 49.2947H16.5977C18.0704 49.2947 19.2643 50.4886 19.2643 51.9613V70.3333C19.2643 71.8061 18.0704 73 16.5977 73H10.0783Z" stroke="#547147" stroke-width="2" stroke-linecap="square"/>
</svg>
